<svg fill="#f7f7f7" width="256px" height="256px" viewBox="-2.4 -2.4 28.80 28.80" id="coffee-beans-left" data-name="Flat Color" xmlns="http://www.w3.org/2000/svg" class="icon flat-color" stroke="#f7f7f7" stroke-width="0.672" transform="matrix(-1, 0, 0, -1, 0, 0)rotate(-45)"><g id="SVGRepo_bgCarrier" stroke-width="0"></g><g id="SVGRepo_tracerCarrier" stroke-linecap="round" stroke-linejoin="round" stroke="#CCCCCC" stroke-width="0.144"></g><g id="SVGRepo_iconCarrier"><path id="secondary" d="M4.94,3.07c.07.38.14.64.14.66,1.16,4.74,2.71,5.9,4.08,6.92a7.85,7.85,0,0,1,1.13,1,3.45,3.45,0,0,0-.2.32,8.75,8.75,0,0,0-1.21,4.69,9.43,9.43,0,0,1-4.52-4.07C2.32,9,2.62,5,4.94,3.07Zm1.85-.93C6.9,2.75,7,3.25,7,3.26c1,4,2.12,4.89,3.32,5.79a9.49,9.49,0,0,1,1.19,1,6.8,6.8,0,0,1,3.89-2.09,11.15,11.15,0,0,0-.68-1.39,9.56,9.56,0,0,0-4.2-4A5.71,5.71,0,0,0,6.79,2.14Z" style="fill: #8f5300;"></path><path id="primary" d="M17.24,7.66c-3.53,3.37-3.76,5.29-4,7-.17,1.42-.32,2.64-3,5.06-.17.15-.58.49-1,.8-1.89-2-2-5.78-.12-9.06,2-3.52,5.7-5.29,8.51-4.24A6.37,6.37,0,0,0,17.24,7.66Zm-6.16,14a4.78,4.78,0,0,0,1.76.33,6.29,6.29,0,0,0,2.59-.6,9.56,9.56,0,0,0,4.2-4A9.52,9.52,0,0,0,21,11.82a5.72,5.72,0,0,0-1.48-3.48c-.48.4-.85.76-.86.76-3,2.88-3.18,4.28-3.35,5.78-.2,1.66-.41,3.38-3.61,6.3C11.64,21.2,11.4,21.41,11.08,21.67Z" style="fill: #000000;"></path></g></svg>